<?xml version="1.0" encoding="utf-8"?>
<!-- Generator: Adobe Illustrator 16.0.0, SVG Export Plug-In . SVG Version: 6.00 Build 0)  -->
<!DOCTYPE svg PUBLIC "-//W3C//DTD SVG 1.1//EN" "http://www.w3.org/Graphics/SVG/1.1/DTD/svg11.dtd">
<svg version="1.1" id="Layer_1" xmlns="http://www.w3.org/2000/svg" xmlns:xlink="http://www.w3.org/1999/xlink" x="0px" y="0px"
	 width="1341.57px" height="1268.85px" viewBox="0 -426.959 1341.57 1268.85" enable-background="new 0 -426.959 1341.57 1268.85"
	 xml:space="preserve">
<g>
	<path d="M176.531,255.304c-35.327-0.954-70.839-2.042-89.392-2.963l2.342,70.493l89.088,8.602L176.531,255.304z"/>
	<polygon points="340.085,434.198 202.114,434.159 203.66,491.914 338.537,491.914 	"/>
	<polygon points="179.138,352.357 90.181,343.779 92.165,403.318 180.746,412.303 	"/>
	<polygon points="337.985,512.682 204.219,512.656 205.979,578.299 336.22,578.299 	"/>
	<path d="M270.999,727.542c52.752,0.507,60.957-18.886,61.793-21.419l0.744-27.86l-124.871-0.018l0.75,27.836
		C210.243,708.456,218.559,728.081,270.999,727.542z"/>
	<path d="M340.648,413.429l4.225-157.58c-32.564,0.843-61.899,1.512-73.536,1.776c-11.825-0.265-41.322-0.934-74.008-1.776
		l4.223,157.58H340.648z"/>
	<path d="M86.77,158.541h368.664v-358.715H86.77V158.541z M220.409,22.945c0-31.581,6.896-57.045,20.695-76.401
		c13.792-19.351,33.234-29.026,58.329-29.026c9.36,0,17.813,2.162,25.367,6.46c7.552,4.311,14.326,10.457,20.319,18.446v-110.668
		h63.284v292.111h-54.855l-4.499-24.908c-6.242,9.361-13.519,16.51-21.814,21.439c-8.3,4.929-17.69,7.394-28.178,7.394
		c-24.968,0-44.318-9.238-58.044-27.708c-13.735-18.478-20.604-42.884-20.604-73.216V22.945L220.409,22.945z M126.601-168.237
		h63.476v42.503h-63.476V-168.237z M126.601-78.735h63.476v202.604h-63.476V-78.735z"/>
	<polygon points="181.308,433.234 92.855,424.27 94.812,483.041 182.856,490.929 	"/>
	<polygon points="335.668,599.071 206.535,599.039 208.109,657.494 334.096,657.494 	"/>
	<path d="M363.617,331.436l89.093-8.602l2.344-70.493c-18.563,0.934-54.096,2.018-89.392,2.963L363.617,331.436z"/>
	<path d="M315.157,79.125c6.612,0,12.449-1.217,17.504-3.65c5.055-2.435,9.203-6.024,12.454-10.771v-81.832
		c-3.251-5.361-7.369-9.483-12.363-12.353c-4.995-2.875-10.735-4.309-17.225-4.309c-11.232,0-19.35,5.182-24.339,15.537
		c-5,10.365-7.49,24.097-7.49,41.199v3.929c0,16.475,2.399,29.31,7.206,38.483C295.711,74.53,303.798,79.125,315.157,79.125z"/>
	<polygon points="361.448,412.303 450.043,403.318 452.022,343.779 363.065,352.357 	"/>
	<path d="M522.936-365.471c0.861-14.706-6.566-23.813-19.047-27.687c-32.472-10.095-134.13-20.771-232.789-20.771
		c-98.658,0-200.318,10.676-232.792,20.771c-12.479,3.874-19.909,12.98-19.041,27.687c0,0-17.313,440.497-5.192,628.287
		c12.19,131.588,16.444,337.512,19.909,440.499c0,0-1.735,46.73,3.458,75.288c5.192,28.561,21.636,46.734,45.871,44.999
		c0,0,161.763,6.065,187.79,6.065l0,0c26.023,0,187.791-6.065,187.791-6.065c24.229,1.735,40.679-16.438,45.869-44.999
		c5.188-28.558,3.454-75.288,3.454-75.288c3.463-102.986,7.717-308.911,19.913-440.499
		C540.249,75.026,522.936-365.471,522.936-365.471z M205.273-309.033c1.84-0.659,19.278-6.459,65.828-6.459s63.988,5.8,65.828,6.459
		c5.396,1.937,8.196,7.89,6.254,13.286c-1.526,4.24-5.522,6.866-9.773,6.866c-1.146,0-2.296-0.183-3.426-0.584
		c-0.477-0.152-16.49-5.257-58.883-5.257c-42.829,0-58.74,5.202-58.887,5.257c-5.395,1.83-11.308-1.024-13.18-6.4
		C197.16-301.235,199.918-307.106,205.273-309.033z M66-220.943h410.205v400.244H66V-220.943z M476.195,241.529l-15.567,468.723
		c-0.051,3.002-1.069,15.271-14.005,28.819c-18.736,19.626-64.369,43.355-175.373,44.938h-0.147h-0.151
		c-111-1.591-156.637-25.312-175.373-44.938c-12.925-13.539-13.955-25.817-13.996-28.819L65.584,228.874l12.495,2.068
		c8.733,1.349,123.174,4.351,193.257,5.921c69.61-1.57,184.053-4.572,192.801-5.921l12.383-1.918L476.195,241.529z"/>
	<polygon points="359.338,490.929 447.391,483.041 449.343,424.27 360.895,433.234 	"/>
	<path d="M353.507,708.234l-0.085,0.607c-0.595,4.065-7.864,39.48-80.282,39.48c-1.41,0-2.859,0-4.274,0
		c-72.238,0-79.494-35.412-80.087-39.48l-0.106-1.217l-0.812-30.131l-86.801-6.269l1.289,38.792l-0.01,0.335
		c0.025,0.133,4.136,50.496,168.759,52.889c164.617-2.396,168.73-52.747,168.755-53.254l1.289-38.762l-86.813,6.269L353.507,708.234
		z"/>
	<polygon points="185.74,598.32 98.412,591.441 100.369,650.344 187.303,656.623 	"/>
	<polygon points="357.02,577.439 444.492,570.551 446.696,503.951 358.784,511.833 	"/>
	<polygon points="183.413,511.833 95.508,503.962 97.712,570.551 185.184,577.439 	"/>
	<polygon points="354.896,656.634 441.845,650.344 443.797,591.441 356.457,598.32 	"/>
</g>
<g>
	<path d="M644.746-53.639c6.116-9.116,13.57-16.201,22.373-21.257c8.803-5.056,18.503-7.576,29.116-7.576
		c20.967,0,37.452,7.302,49.435,21.905c11.976,14.605,17.971,37.26,17.971,67.969v116.476h-63.283V7.032
		c0-15.481-2.339-26.15-7.027-32.021c-4.683-5.868-11.824-8.803-21.439-8.803c-6.116,0-11.419,0.912-15.913,2.718
		c-4.492,1.816-8.245,4.341-11.231,7.581v147.372h-63.292v-292.112h63.292V-53.639L644.746-53.639z"/>
	<path d="M891.343,127.802c-29.835,0-53.648-9.36-71.438-28.082c-17.787-18.726-26.681-42.2-26.681-70.412v-7.109
		c0-30.835,8.082-56.021,24.248-75.56c16.165-19.537,39.294-29.239,69.379-29.123c27.457,0,48.993,8.246,64.595,24.715
		c15.603,16.48,23.408,38.827,23.408,67.036v33.148H859.149l-0.376,1.12c1.369,10.365,5.62,18.884,12.729,25.562
		c7.118,6.679,16.596,10.015,28.462,10.015c11.98,0,21.561-0.938,28.74-2.808c7.17-1.871,16.258-5.112,27.24-9.736l14.981,38.58
		c-8.864,6.491-20.314,11.885-34.359,16.196C922.529,125.653,907.453,127.802,891.343,127.802z M886.855-33.792
		c-9.111,0-15.943,3.244-20.506,9.736c-4.555,6.49-7.333,15.162-8.331,26.028l0.558,0.933h54.491v-4.874
		c0-10.232-2.12-18.098-6.375-23.589C902.462-31.048,895.836-33.792,886.855-33.792z"/>
	<path d="M1116.054-22.931l-23.035-0.188c-7.243,0-13.169,1.213-17.8,3.646c-4.614,2.439-8.042,5.902-10.287,10.396v132.947h-63.296
		V-78.735h59.552l2.246,29.771c4.244-10.608,9.853-18.844,16.855-24.715c6.987-5.861,15.171-8.802,24.532-8.802
		c2.992,0,6.057,0.223,9.169,0.66c3.128,0.436,5.877,0.969,8.251,1.587L1116.054-22.931z"/>
	<path d="M1131.211,20.699c0-30.465,8.609-55.272,25.84-74.429c17.237-19.163,41.258-28.751,72.093-28.751
		c30.961,0,55.059,9.583,72.279,28.751c17.225,19.159,25.84,43.974,25.84,74.429v3.924c0,30.592-8.609,55.424-25.84,74.53
		c-17.221,19.097-41.2,28.65-71.908,28.65c-31.079,0-55.231-9.543-72.458-28.65c-17.231-19.105-25.846-43.938-25.846-74.53V20.699
		L1131.211,20.699z M1194.507,24.623c0,16.982,2.647,30.304,7.948,39.978c5.304,9.676,14.335,14.513,27.057,14.513
		c12.367,0,21.231-4.869,26.59-14.604c5.367-9.736,8.06-23.032,8.06-39.888v-3.924c0-16.48-2.692-29.685-8.06-39.603
		c-5.358-9.929-14.35-14.888-26.961-14.888c-12.482,0-21.379,4.989-26.686,14.979c-5.306,9.985-7.948,23.153-7.948,39.512V24.623
		L1194.507,24.623z"/>
</g>
</svg>
